<mxfile host="app.diagrams.net" modified="2024-02-15T09:59:27.057Z" agent="Mozilla/5.0 (X11; Linux x86_64; rv:122.0) Gecko/20100101 Firefox/122.0" version="23.1.4" etag="M9e2WXDETah-HGCVoycw" type="github">
  <diagram name="PÃ¡gina-1" id="84ghShq_uCjJh5e3FwZS">
    <mxGraphModel>
      <root>
        <mxCell id="0" />
        <mxCell id="1" parent="0" />
      </root>
    </mxGraphModel>
  </diagram>
</mxfile>
